:SAMPLES-PER-SECOND 30
:FULLY-SPECIFIED
:DEGREES
226
root  11.82917798 37.02333405 -2.813199937 -8.241027832 -63.24779892 7.656005859
lowerback  17.03450012 0.3570629954 1.576370001
upperback  6.90459013 -0.0148796998 -8.228969574
thorax  -2.119630098 -0.04975390062 -9.793950081
lowerneck  5.251299858 4.929749966 -2.473920107
upperneck  6.744830132 6.009669781 8.081500053
head  0.8829630017 2.941900015 2.938220024
lclavicle  0 -9.442270133e-015 7.951389973e-016
lhumerus  19.18580055 -17.6814003 68.78990173
lradius  2.193591906e-031 -2.76712822e-031 128.4049988
lwrist  -7.062250077e-031 -0 10.50689983
lhand  -1.496451383e-031 -27.76390076 20.11240005
lfingers  90 7.125020027 -90
lthumb  89.89689403 5.08795885 91.16245106
rclavicle  0 -9.442270133e-015 7.951389973e-016
rhumerus  27.78989983 15.01589966 -85.2322998
rradius  -2.160109634e-031 2.793343947e-031 127.7149963
rwrist  3.531125038e-031 -3.531125038e-031 4.987959862
rhand  -7.920061211e-032 -33.2840004 9.303460121
rfingers  -90 -7.125020027 -90
rthumb  -92.93752616 -24.25625642 -97.11982154
rfemur  -39.96220016 18.96159935 -6.730609894
rtibia  -0 0 54.08240128
rfoot  -4.507402777e-032 -11.69029999 -4.098750114
rtoes  5.373923086 19.29304026 -105.8922705
lfemur  -12.46809959 8.557510376 -10.19379997
ltibia  -0 0 59.17570114
lfoot  1.002230757e-031 -28.25900078 7.081999779
ltoes  -4.250644065 -19.5611806 -102.515957
227
root  11.97413347 37.29133306 -2.745311091 -8.689025879 -65.43160248 8.109985352
lowerback  17.21030045 1.051190019 0.9000499845
upperback  6.832349777 0.8153510094 -7.558269978
thorax  -2.172780037 0.3473210037 -8.795940399
lowerneck  5.49846983 5.09762001 -3.305439949
upperneck  7.228159904 6.191709995 7.357309818
head  0.9828889966 3.007469893 2.845750093
lclavicle  0 -9.442270133e-015 7.951389973e-016
lhumerus  17.82789993 -17.12949944 70.28489685
lradius  2.206607492e-031 -2.756760311e-031 128.6750031
lwrist  -7.062250077e-031 -1.765562519e-031 10.43260002
lhand  -1.496451383e-031 -27.76390076 20.11240005
lfingers  90 7.125020027 -90
lthumb  89.89689403 5.08795885 91.16245106
rclavicle  0 -9.442270133e-015 7.951389973e-016
rhumerus  27.31119919 16.39170074 -84.94660187
rradius  -2.145209778e-031 2.804802853e-031 127.4100037
rwrist  7.062250077e-031 -3.531125038e-031 5.04723978
rhand  -7.920061211e-032 -33.2840004 9.303460121
rfingers  -90 -7.125020027 -90
rthumb  -92.93752616 -24.25625642 -97.11982154
rfemur  -39.83459854 19.38899994 -6.368450165
rtibia  -0 0 51.74969864
rfoot  -4.487871756e-032 -10.41670036 -4.02507019
rtoes  5.373923086 19.29304026 -105.8922705
lfemur  -12.32989979 8.16893959 -10.41989994
ltibia  -0 0 59.50979996
lfoot  -0 -26.38500023 7.255179882
ltoes  -4.250644065 -19.5611806 -102.515957
228
root  12.11464424 37.54844365 -2.691800012 -9.08001709 -67.5503006 8.70098877
lowerback  17.11170006 1.709699988 0.08319059759
upperback  6.807869911 1.587270021 -6.855269909
thorax  -2.08137989 0.7154809833 -7.670859814
lowerneck  5.761479855 5.325759888 -4.189050198
upperneck  7.545000076 6.461420059 6.609590054
head  1.02184999 3.109339952 2.74861002
lclavicle  0 -9.442270133e-015 7.951389973e-016
lhumerus  16.76959991 -16.33160019 71.66549683
lradius  2.215448718e-031 -2.749660164e-031 128.8589935
lwrist  -7.062250077e-031 -1.765562519e-031 10.64309978
lhand  -1.496451383e-031 -27.76390076 20.11240005
lfingers  90 7.125020027 -90
lthumb  89.89689403 5.08795885 91.16245106
rclavicle  0 -9.442270133e-015 7.951389973e-016
rhumerus  26.96159935 17.58060074 -84.61430359
rradius  -2.13373685e-031 2.813540669e-031 127.1760025
rwrist  1.059337512e-030 -3.531125038e-031 4.342080116
rhand  -7.920061211e-032 -33.2840004 9.303460121
rfingers  -90 -7.125020027 -90
rthumb  -92.93752616 -24.25625642 -97.11982154
rfemur  -39.87340164 19.58300018 -6.038400173
rtibia  -0 0 49.42259979
rfoot  -4.467935012e-032 -8.919389725 -3.885449886
rtoes  5.373923086 19.29304026 -105.8922705
lfemur  -12.47630024 7.698880196 -10.66059971
ltibia  -0 0 59.80490112
lfoot  -0 -24.0788002 7.605060101
ltoes  -4.250644065 -19.5611806 -102.515957
229
root  12.24608909 37.82155495 -2.639999915 -9.189025879 -69.59940338 8.914001465
lowerback  17.03720093 2.312239885 -0.6338689923
upperback  6.872809887 2.30298996 -6.09924984
thorax  -1.949139953 1.054630041 -6.548590183
lowerneck  5.887219906 5.52862978 -5.023880005
upperneck  7.827700138 6.707379818 5.806729794
head  1.07901001 3.199229956 2.628489971
lclavicle  0 -9.442270133e-015 7.951389973e-016
lhumerus  16.12879944 -15.27779961 72.77780151
lradius  2.220627848e-031 -2.745479193e-031 128.9669952
lwrist  -1.412450015e-030 -0 11.19340038
lhand  -1.496451383e-031 -27.76390076 20.11240005
lfingers  90 7.125020027 -90
lthumb  89.89689403 5.08795885 91.16245106
rclavicle  0 -9.442270133e-015 7.951389973e-016
rhumerus  26.74819946 18.67169952 -84.2440033
rradius  -2.122179101e-031 2.822268574e-031 126.9410019
rwrist  3.531125038e-031 -3.531125038e-031 3.401520014
rhand  -7.920061211e-032 -33.2840004 9.303460121
rfingers  -90 -7.125020027 -90
rthumb  -92.93752616 -24.25625642 -97.11982154
rfemur  -39.74000168 19.8015995 -5.415289879
rtibia  -0 0 47.18099976
rfoot  -4.451438288e-032 -7.445499897 -4.26101017
rtoes  5.373923086 19.29304026 -105.8922705
lfemur  -12.6328001 7.060400009 -10.74779987
ltibia  -0 0 60.09790039
lfoot  -0 -21.39889908 8.001649857
ltoes  -4.250644065 -19.5611806 -102.515957
230
root  12.3705113 38.12600083 -2.602288854 -9.486022949 -71.51180267 9.312011719
lowerback  16.98060036 2.924570084 -1.527770042
upperback  6.983089924 2.99703002 -5.374410152
thorax  -1.821409941 1.375180006 -5.368490219
lowerneck  5.810530186 5.6416502 -5.63932991
upperneck  8.187720299 6.849750042 5.083509922
head  1.206390023 3.242769957 2.507179976
lclavicle  0 -9.442270133e-015 7.951389973e-016
lhumerus  15.83030033 -14.22099972 73.63150024
lradius  2.224794391e-031 -2.742103929e-031 129.0540009
lwrist  -7.062250077e-031 -1.765562519e-031 11.80970001
lhand  -1.496451383e-031 -27.76390076 20.11240005
lfingers  90 7.125020027 -90
lthumb  89.89689403 5.08795885 91.16245106
rclavicle  0 -9.442270133e-015 7.951389973e-016
rhumerus  26.60860062 19.58639908 -83.83989716
rradius  -2.110042031e-031 2.831354211e-031 126.6949997
rwrist  1.059337512e-030 -3.531125038e-031 2.23149991
rhand  -7.920061211e-032 -33.2840004 9.303460121
rfingers  -90 -7.125020027 -90
rthumb  -92.93752616 -24.25625642 -97.11982154
rfemur  -39.52259827 20.10059929 -4.787069798
rtibia  -0 0 45.21969986
rfoot  -4.441597755e-032 -6.401279926 -5.126070023
rtoes  5.373923086 19.29304026 -105.8922705
lfemur  -12.97430038 6.276269913 -10.90690041
ltibia  -0 0 60.49129868
lfoot  -0 -18.63870049 7.990340233
ltoes  -4.250644065 -19.5611806 -102.515957
231
root  12.48766681 38.40466597 -2.595688978 -8.843017578 -73.29450226 8.91998291
lowerback  16.78619957 3.486449957 -2.268919945
upperback  7.029940128 3.659759998 -4.640719891
thorax  -1.717329979 1.681879997 -4.266739845
lowerneck  5.630149841 5.703949928 -6.127570152
upperneck  8.622579575 6.932360172 4.527470112
head  1.377660036 3.257940054 2.426029921
lclavicle  0 -9.442270133e-015 7.951389973e-016
lhumerus  15.74969959 -13.35470009 74.33769989
lradius  2.228907665e-031 -2.738761519e-031 129.1399994
lwrist  -1.412450015e-030 -1.765562519e-031 12.0618
lhand  -1.496451383e-031 -27.76390076 20.11240005
lfingers  90 7.125020027 -90
lthumb  89.89689403 5.08795885 91.16245106
rclavicle  0 -9.442270133e-015 7.951389973e-016
rhumerus  26.5223999 20.38159943 -83.47170258
rradius  -2.094295141e-031 2.843021614e-031 126.3769989
rwrist  1.059337512e-030 -0 1.236580014
rhand  -7.920061211e-032 -33.2840004 9.303460121
rfingers  -90 -7.125020027 -90
rthumb  -92.93752616 -24.25625642 -97.11982154
rfemur  -39.52320099 20.5401001 -4.023220062
rtibia  -0 0 43.65599823
rfoot  -4.440164762e-032 -6.234290123 -6.234020233
rtoes  5.373923086 19.29304026 -105.8922705
lfemur  -13.80020046 5.711460114 -10.68060017
ltibia  -0 0 61.07690048
lfoot  -0 -15.76720047 7.520050049
ltoes  -4.250644065 -19.5611806 -102.515957
232
root  12.59744449 38.66044593 -2.611688929 -7.012023926 -74.87539673 7.42199707
lowerback  16.45800018 3.956180096 -2.863739967
upperback  7.073359966 4.239739895 -3.855900049
thorax  -1.574300051 1.949710011 -3.178809881
lowerneck  5.299550056 5.755159855 -6.459310055
upperneck  9.090220451 7.025720119 3.955270052
head  1.591279984 3.279959917 2.318969965
lclavicle  0 -9.442270133e-015 7.951389973e-016
lhumerus  15.92529964 -12.62479973 74.92769623
lradius  2.229529036e-031 -2.738255707e-031 129.1529999
lwrist  -7.062250077e-031 -3.531125038e-031 11.45059967
lhand  -1.496451383e-031 -27.76390076 20.11240005
lfingers  90 7.125020027 -90
lthumb  89.89689403 5.08795885 91.16245106
rclavicle  0 -9.442270133e-015 7.951389973e-016
rhumerus  26.63960075 21.0265007 -83.0983963
rradius  -2.069355758e-031 2.861225399e-031 125.8759995
rwrist  3.531125038e-031 -3.531125038e-031 0.7969830036
rhand  -7.920061211e-032 -33.2840004 9.303460121
rfingers  -90 -7.125020027 -90
rthumb  -92.93752616 -24.25625642 -97.11982154
rfemur  -39.46549988 20.51049995 -2.568769932
rtibia  -0 0 42.72719955
rfoot  -0 -6.405729771 -7.370989799
rtoes  5.373923086 19.29304026 -105.8922705
lfemur  -14.99260044 5.459320068 -10.07120037
ltibia  -0 0 61.82989883
lfoot  -0 -12.79699993 6.85999012
ltoes  -4.250644065 -19.5611806 -102.515957
233
root  12.70033318 38.88333238 -2.640733381 -5.257995605 -76.26409912 5.885986328
lowerback  16.18490028 4.383550167 -3.467319965
upperback  7.211259842 4.752009869 -3.190180063
thorax  -1.375419974 2.179749966 -2.206310034
lowerneck  4.990250111 5.797749996 -6.660349846
upperneck  9.284410477 7.118010044 3.535360098
head  1.711859941 3.311039925 2.231820107
lclavicle  0 -9.442270133e-015 7.951389973e-016
lhumerus  16.47389984 -11.56239986 75.42220306
lradius  2.224554855e-031 -2.742298258e-031 129.048996
lwrist  -1.412450015e-030 -1.765562519e-031 11.93719959
lhand  -1.496451383e-031 -27.76390076 20.11240005
lfingers  90 7.125020027 -90
lthumb  89.89689403 5.08795885 91.16245106
rclavicle  0 -9.442270133e-015 7.951389973e-016
rhumerus  26.93540001 21.30170059 -82.78109741
rradius  -2.041744637e-031 2.880993383e-031 125.3249969
rwrist  1.059337512e-030 -3.531125038e-031 0.700206995
rhand  -7.920061211e-032 -33.2840004 9.303460121
rfingers  -90 -7.125020027 -90
rthumb  -92.93752616 -24.25625642 -97.11982154
rfemur  -39.26649857 20.33860016 -1.044010043
rtibia  -0 0 42.46720123
rfoot  -0 -6.898910046 -8.04654026
rtoes  5.373923086 19.29304026 -105.8922705
lfemur  -16.18779945 5.399409771 -9.532560349
ltibia  -0 0 62.72399902
lfoot  4.483662159e-032 -10.11989975 6.15571022
ltoes  -4.250644065 -19.5611806 -102.515957
234
root  12.80977745 39.07355661 -2.679444486 -2.882019043 -77.38490295 3.632019043
lowerback  16.30419922 4.562970161 -3.236799955
upperback  7.233029842 5.00797987 -3.116919994
thorax  -1.399199963 2.307280064 -2.309710026
lowerneck  4.811989784 5.830220222 -6.380159855
upperneck  9.186459541 7.188350201 3.504679918
head  1.716750026 3.358639956 2.176009893
lclavicle  0 -9.442270133e-015 7.951389973e-016
lhumerus  17.22400093 -10.81630039 74.86070251
lradius  2.223405869e-031 -2.743229917e-031 129.0249939
lwrist  -1.412450015e-030 1.765562519e-031 12.15030003
lhand  -1.496451383e-031 -27.76390076 20.11240005
lfingers  90 7.125020027 -90
lthumb  89.89689403 5.08795885 91.16245106
rclavicle  0 -9.442270133e-015 7.951389973e-016
rhumerus  27.1697998 21.19079971 -83.32150269
rradius  -2.019560472e-031 2.896587568e-031 124.8850021
rwrist  7.062250077e-031 -3.531125038e-031 0.5557389855
rhand  -7.920061211e-032 -33.2840004 9.303460121
rfingers  -90 -7.125020027 -90
rthumb  -92.93752616 -24.25625642 -97.11982154
rfemur  -38.93050003 19.8423996 0.7687349916
rtibia  -0 0 42.94430161
rfoot  -0 -7.362780094 -8.132089615
rtoes  5.373923086 19.29304026 -105.8922705
lfemur  -17.47570038 5.321909904 -8.951760292
ltibia  -0 0 63.70629883
lfoot  4.457614671e-032 -8.03015995 5.186279774
ltoes  -4.250644065 -19.5611806 -102.515957
